# xmcd
#
# Track frame offsets: 
#        150
#        14951
#        31836
#        49056
#        64698
#        81239
#        97721
#        117313
#        131299
#        148668
#        167687
#        188790
#        208915
#        231481
#
# Disc length: 3295 seconds
#
# Revision: 0
# Processed by: cddbd v1.5.2PL0 Copyright (c) Steve Scherf et al.
# Submitted via: ExactAudioCopyFreeDBPlugin 1.0
#
DISCID=c30cdd0e
DTITLE=Sebastian Bach - Kicking and Screaming
DYEAR=2011
DGENRE=Heavy Rock
TTITLE0=Kicking and Screaming
TTITLE1=My Own Worst Enemy
TTITLE2=Tunnelvision
TTITLE3=Dance On Your Grave
TTITLE4=Caught In A Dream
TTITLE5=As Long As I Got The Music
TTITLE6=I'm Alive
TTITLE7=Dirty Power
TTITLE8=Live The Life
TTITLE9=Dream Forever
TTITLE10=One Good Reason
TTITLE11=Lost In The Light
TTITLE12=Wishin'
TTITLE13=Jumpin' Off The Wagon (Bonus Track)
EXTD=
EXTT0=
EXTT1=
EXTT2=
EXTT3=
EXTT4=
EXTT5=
EXTT6=
EXTT7=
EXTT8=
EXTT9=
EXTT10=
EXTT11=
EXTT12=
EXTT13=
PLAYORDER=
